nColumns=19
nRows=115
DataType=double
version=3
OpenSimVersion=4.1
endheader
time	ground_force_calcn_r_vx	ground_force_calcn_r_vy	ground_force_calcn_r_vz	ground_force_calcn_r_px	ground_force_calcn_r_py	ground_force_calcn_r_pz	ground_force_calcn_r_mx	ground_force_calcn_r_my	ground_force_calcn_r_mz	ground_force_calcn_l_vx	ground_force_calcn_l_vy	ground_force_calcn_l_vz	ground_force_calcn_l_px	ground_force_calcn_l_py	ground_force_calcn_l_pz	ground_force_calcn_l_mx	ground_force_calcn_l_my	ground_force_calcn_l_mz
1.3	0	0	0	0	0	0	0	0	0	84.1426	1557.89	-7.93103	0.804305	0	-0.625942	0.105747	1.95789	-0.00996739
1.30833	0	0	0	0	0	0	0	0	0	136.713	1410.79	-16.749	0.767427	0	-0.624747	0.235179	2.42689	-0.0288122
1.31667	0	0	0	0	0	0	0	0	0	192.623	1239.61	-27.0931	0.725958	0	-0.623314	0.448325	2.88516	-0.0630586
1.325	0	0	0	0	0	0	0	0	0	226.917	1054.71	-34.0226	0.687661	0	-0.621811	0.670927	3.11846	-0.100595
1.33333	0	0	0	0	0	0	0	0	0	229.835	859.335	-34.3254	0.656432	0	-0.620027	0.804331	3.00734	-0.120125
1.34167	0	0	0	0	0	0	0	0	0	211.36	657.23	-29.1407	0.629555	0	-0.618193	0.81778	2.54291	-0.112749
1.35	0	0	0	0	0	0	0	0	0	179.065	460.376	-21.7554	0.602657	0	-0.617171	0.712816	1.83265	-0.0866031
1.35833	0	0	0	0	0	0	0	0	0	133.452	286.157	-14.0549	0.573497	0	-0.616589	0.501665	1.0757	-0.0528343
1.36667	0	0	0	0	0	0	0	0	0	82.026	153.851	-6.33118	0.548612	0	-0.613749	0.246763	0.462839	-0.0190464
1.375	0	0	0	0	0	0	0	0	0	38.8376	72.848	0.437069	0.566165	0	-0.606708	0.0450325	0.0844677	0.000506784
1.38333	0	0	0	0	0	0	0	0	0	13.068	32.7595	4.22471	0.676028	0	-0.598352	-0.0293935	-0.0736853	-0.00950255
1.39167	0	0	0	0	0	0	0	0	0	3.47004	13.9794	4.33671	0.756728	0	-0.581283	-0.00603085	-0.0242958	-0.00753711
1.4	0	0	0	0	0	0	0	0	0	0	0	0	0	0	0	0	0	0
1.40833	0	0	0	0	0	0	0	0	0	0	0	0	0	0	0	0	0	0
1.41667	0	0	0	0	0	0	0	0	0	0	0	0	0	0	0	0	0	0
1.425	0	0	0	0	0	0	0	0	0	0	0	0	0	0	0	0	0	0
1.43333	0	0	0	0	0	0	0	0	0	0	0	0	0	0	0	0	0	0
1.44167	0	0	0	0	0	0	0	0	0	0	0	0	0	0	0	0	0	0
1.45	0	0	0	0	0	0	0	0	0	0	0	0	0	0	0	0	0	0
1.45833	0	0	0	0	0	0	0	0	0	0	0	0	0	0	0	0	0	0
1.46667	-1.35347	11.5665	2.35823	1.00466	0	-0.675306	-0.441622	3.77403	0.769462	0	0	0	0	0	0	0	0	0
1.475	-2.65896	17.0118	0.267217	1.04006	0	-0.683608	-0.894235	5.72124	0.0898677	0	0	0	0	0	0	0	0	0
1.48333	-5.46844	42.7746	-3.08609	1.12146	0	-0.640565	-0.969519	7.58366	-0.547144	0	0	0	0	0	0	0	0	0
1.49167	-14.1222	127.406	-6.91766	1.16977	0	-0.62179	-1.00084	9.02926	-0.490253	0	0	0	0	0	0	0	0	0
1.5	-33.7359	322.786	-10.1274	1.17831	0	-0.618475	-0.995602	9.52596	-0.298878	0	0	0	0	0	0	0	0	0
1.50833	-68.5788	641.191	-9.5252	1.17038	0	-0.620549	-0.933835	8.73108	-0.129704	0	0	0	0	0	0	0	0	0
1.51667	-116.06	979.087	0.0194789	1.15861	0	-0.623727	-0.785646	6.62773	0.000131858	0	0	0	0	0	0	0	0	0
1.525	-167.315	1186.63	20.2646	1.14686	0	-0.625759	-0.505569	3.58559	0.0612327	0	0	0	0	0	0	0	0	0
1.53333	-223.369	1255.31	44.1798	1.13527	0	-0.625771	-0.0538285	0.302511	0.0106467	0	0	0	0	0	0	0	0	0
1.54167	-275.661	1299.41	59.7422	1.11933	0	-0.624615	0.514887	-2.42707	-0.111588	0	0	0	0	0	0	0	0	0
1.55	-288.911	1395.84	60.7051	1.09205	0	-0.623989	0.847906	-4.09656	-0.178159	0	0	0	0	0	0	0	0	0
1.55833	-252.54	1545.18	51.3115	1.05576	0	-0.624085	0.732219	-4.48012	-0.148773	0	0	0	0	0	0	0	0	0
1.56667	-195.661	1705.61	39.7908	1.02081	0	-0.623781	0.40448	-3.52592	-0.0822576	0	0	0	0	0	0	0	0	0
1.575	-146.199	1828.6	29.8773	0.991471	0	-0.622586	0.120624	-1.50872	-0.0246508	0	0	0	0	0	0	0	0	0
1.58333	-109.635	1895.12	20.2962	0.964304	0	-0.620946	-0.0621909	1.07501	0.0115131	0	0	0	0	0	0	0	0	0
1.59167	-74.9925	1913.69	10.046	0.93615	0	-0.619355	-0.1444	3.68486	0.0193438	0	0	0	0	0	0	0	0	0
1.6	-37.9588	1896.28	0.854715	0.907826	0	-0.617923	-0.116752	5.83248	0.00262889	0	0	0	0	0	0	0	0	0
1.60833	-5.39784	1848.17	-5.10958	0.880943	0	-0.616566	-0.0208861	7.1512	-0.0197707	0	0	0	0	0	0	0	0	0
1.61667	22.561	1771.78	-7.27982	0.854689	0	-0.615437	0.0949349	7.45552	-0.0306329	0	0	0	0	0	0	0	0	0
1.625	52.3891	1668.53	-5.80059	0.82717	0	-0.614887	0.212258	6.76017	-0.0235014	0	0	0	0	0	0	0	0	0
1.63333	86.9384	1537.57	-0.388153	0.797151	0	-0.615124	0.297817	5.26713	-0.00132966	0	0	0	0	0	0	0	0	0
1.64167	126.469	1376.05	8.61568	0.763604	0	-0.615873	0.305719	3.32636	0.020827	0	0	0	0	0	0	0	0	0
1.65	169.582	1184.64	18.7764	0.726071	0	-0.61666	0.195878	1.36834	0.021688	0	0	0	0	0	0	0	0	0
1.65833	204.322	974.683	26.5134	0.687464	0	-0.617581	-0.0392193	-0.187089	-0.00508922	0	0	0	0	0	0	0	0	0
1.66667	211.745	762.108	29.7398	0.652729	0	-0.618661	-0.294737	-1.06081	-0.0413961	0	0	0	0	0	0	0	0	0
1.675	189.867	558.778	28.8304	0.623626	0	-0.618983	-0.409146	-1.20411	-0.0621268	0	0	0	0	0	0	0	0	0
1.68333	151.016	375.04	25.0873	0.599988	0	-0.617595	-0.302364	-0.750905	-0.0502297	0	0	0	0	0	0	0	0	0
1.69167	104.851	223.871	19.4733	0.584023	0	-0.614214	0.0218946	0.0467478	0.00406634	0	0	0	0	0	0	0	0	0
1.7	59.2	114.877	13.1469	0.57347	0	-0.606104	0.475427	0.922561	0.105581	0	0	0	0	0	0	0	0	0
1.70833	23.9974	48.6877	7.91348	0.551939	0	-0.581645	0.865045	1.75507	0.28526	0	0	0	0	0	0	0	0	0
1.71667	5.47292	18.498	5.11187	0.517718	0	-0.542699	0.76571	2.58803	0.715195	0	0	0	0	0	0	0	0	0
1.725	0.235899	10.9478	4.3542	0.591556	0	-0.606304	0.0641213	2.9758	1.18354	0	0	0	0	0	0	0	0	0
1.73333	0	0	0	0	0	0	0	0	0	0	0	0	0	0	0	0	0	0
1.74167	0	0	0	0	0	0	0	0	0	0	0	0	0	0	0	0	0	0
1.75	0	0	0	0	0	0	0	0	0	0	0	0	0	0	0	0	0	0
1.75833	0	0	0	0	0	0	0	0	0	0	0	0	0	0	0	0	0	0
1.76667	0	0	0	0	0	0	0	0	0	0	0	0	0	0	0	0	0	0
1.775	0	0	0	0	0	0	0	0	0	0	0	0	0	0	0	0	0	0
1.78333	0	0	0	0	0	0	0	0	0	0	0	0	0	0	0	0	0	0
1.79167	0	0	0	0	0	0	0	0	0	0	0	0	0	0	0	0	0	0
1.8	0	0	0	0	0	0	0	0	0	0	0	0	0	0	0	0	0	0
1.80833	0	0	0	0	0	0	0	0	0	0.433038	10.6191	3.71428	1.12249	0	-0.643238	-0.0465808	-1.14227	-0.399536
1.81667	0	0	0	0	0	0	0	0	0	-1.68566	19.8807	4.01566	1.11765	0	-0.616658	0.138828	-1.63734	-0.330724
1.825	0	0	0	0	0	0	0	0	0	-4.39535	54.2464	3.87918	1.12075	0	-0.620233	0.130825	-1.61461	-0.115461
1.83333	0	0	0	0	0	0	0	0	0	-9.91939	160.163	2.97126	1.13014	0	-0.625062	0.0488461	-0.788688	-0.0146314
1.84167	0	0	0	0	0	0	0	0	0	-23.6218	390.726	-0.281528	1.12829	0	-0.62601	-0.0565835	0.935941	-0.00067437
1.85	0	0	0	0	0	0	0	0	0	-52.2585	735.243	-8.60461	1.11974	0	-0.626214	-0.245649	3.45613	-0.0404473
1.85833	0	0	0	0	0	0	0	0	0	-95.7471	1061.94	-23.2312	1.10831	0	-0.626073	-0.576868	6.3981	-0.139966
1.86667	0	0	0	0	0	0	0	0	0	-144.816	1230.27	-40.3856	1.09531	0	-0.625353	-1.07764	9.15502	-0.300527
1.875	0	0	0	0	0	0	0	0	0	-195.495	1269.46	-51.2678	1.08058	0	-0.624733	-1.70377	11.0635	-0.446806
1.88333	0	0	0	0	0	0	0	0	0	-240.979	1316.36	-48.3483	1.06215	0	-0.62494	-2.14602	11.7227	-0.430562
1.89167	0	0	0	0	0	0	0	0	0	-254.914	1436.4	-33.5109	1.03764	0	-0.625572	-1.98031	11.1587	-0.260331
1.9	0	0	0	0	0	0	0	0	0	-226.612	1598.65	-17.2901	1.00735	0	-0.626352	-1.35083	9.52957	-0.103066
1.90833	0	0	0	0	0	0	0	0	0	-174.289	1749.01	-7.71433	0.974563	0	-0.627359	-0.711268	7.13768	-0.031482
1.91667	0	0	0	0	0	0	0	0	0	-118.893	1860.18	-3.14646	0.942691	0	-0.628471	-0.286515	4.48278	-0.00758254
1.925	0	0	0	0	0	0	0	0	0	-75.4503	1924.93	1.65405	0.914436	0	-0.629323	-0.0809853	2.06614	0.00177539
1.93333	0	0	0	0	0	0	0	0	0	-42.5987	1940.16	6.71762	0.888585	0	-0.629893	-0.00589514	0.268494	0.000929636
1.94167	0	0	0	0	0	0	0	0	0	-9.38495	1911	8.09399	0.861196	0	-0.630614	0.00340332	-0.692998	-0.00293517
1.95	0	0	0	0	0	0	0	0	0	29.8523	1849.13	4.74943	0.831	0	-0.63156	-0.0125067	-0.774696	-0.00198978
1.95833	0	0	0	0	0	0	0	0	0	72.0022	1760.4	-0.681612	0.800082	0	-0.632128	-0.00392346	-0.0959255	3.71416e-05
1.96667	0	0	0	0	0	0	0	0	0	112.799	1639.86	-6.92803	0.76928	0	-0.631792	0.0753841	1.09593	-0.00463005
1.975	0	0	0	0	0	0	0	0	0	159.32	1483.51	-15.4364	0.735016	0	-0.630805	0.265272	2.47009	-0.025702
1.98333	0	0	0	0	0	0	0	0	0	212	1297.06	-26.0884	0.694889	0	-0.629692	0.597403	3.65504	-0.0735155
1.99167	0	0	0	0	0	0	0	0	0	248.141	1091.2	-34.7276	0.65323	0	-0.628525	0.985903	4.33549	-0.137978
2	0	0	0	0	0	0	0	0	0	249.684	875.174	-36.6744	0.618142	0	-0.627222	1.24929	4.37893	-0.1835
2.00833	0	0	0	0	0	0	0	0	0	222.959	655.59	-31.4785	0.59315	0	-0.625748	1.30187	3.82803	-0.183805
2.01667	0	0	0	0	0	0	0	0	0	182.399	445.56	-22.9435	0.572421	0	-0.62404	1.16595	2.84815	-0.146662
2.025	0	0	0	0	0	0	0	0	0	133.885	267.989	-14.8837	0.548968	0	-0.622381	0.864092	1.72959	-0.0960586
2.03333	0	0	0	0	0	0	0	0	0	82.6522	141.747	-8.12471	0.528563	0	-0.621366	0.458478	0.786282	-0.0450684
2.04167	0	0	0	0	0	0	0	0	0	39.9356	67.8026	-2.00268	0.5376	0	-0.619247	0.0938427	0.159326	-0.004706
2.05	0	0	0	0	0	0	0	0	0	13.555	31.923	2.7815	0.613535	0	-0.610158	-0.0893116	-0.210335	-0.0183268
2.05833	0	0	0	0	0	0	0	0	0	3.00476	16.1618	4.5886	0.704432	0	-0.595503	-0.0578186	-0.310991	-0.0882954
2.06667	0	0	0	0	0	0	0	0	0	0	0	0	0	0	0	0	0	0
2.075	0	0	0	0	0	0	0	0	0	0	0	0	0	0	0	0	0	0
2.08333	0	0	0	0	0	0	0	0	0	0	0	0	0	0	0	0	0	0
2.09167	0	0	0	0	0	0	0	0	0	0	0	0	0	0	0	0	0	0
2.1	0	0	0	0	0	0	0	0	0	0	0	0	0	0	0	0	0	0
2.10833	0	0	0	0	0	0	0	0	0	0	0	0	0	0	0	0	0	0
2.11667	0	0	0	0	0	0	0	0	0	0	0	0	0	0	0	0	0	0
2.125	0	0	0	0	0	0	0	0	0	0	0	0	0	0	0	0	0	0
2.13333	-0.368107	11.7148	1.77959	0.916977	0	-0.601955	-0.118149	3.76003	0.571185	0	0	0	0	0	0	0	0	0
2.14167	-2.95675	24.85	-1.47644	1.08176	0	-0.619301	-0.651017	5.47147	-0.325082	0	0	0	0	0	0	0	0	0
2.15	-11.189	69.6297	-7.87703	1.12584	0	-0.614828	-1.11752	6.95441	-0.786735	0	0	0	0	0	0	0	0	0
2.15833	-30.4791	191.509	-15.9925	1.13609	0	-0.610693	-1.28466	8.07188	-0.674064	0	0	0	0	0	0	0	0	0
2.16667	-61.5687	423.786	-22.5193	1.13502	0	-0.613489	-1.19607	8.23271	-0.437473	0	0	0	0	0	0	0	0	0
2.175	-93.5502	719.277	-21.7546	1.12478	0	-0.618242	-0.926085	7.12037	-0.215356	0	0	0	0	0	0	0	0	0
2.18333	-117.17	968.796	-8.26969	1.10926	0	-0.621939	-0.580673	4.80118	-0.0409832	0	0	0	0	0	0	0	0	0
2.19167	-149.427	1121.75	16.2862	1.09227	0	-0.623471	-0.232465	1.74512	0.0253364	0	0	0	0	0	0	0	0	0
2.2	-198.244	1219.4	40.8253	1.07413	0	-0.623163	0.207428	-1.27589	-0.0427166	0	0	0	0	0	0	0	0	0
2.20833	-230.857	1324.57	53.3531	1.04809	0	-0.622801	0.619011	-3.55166	-0.143059	0	0	0	0	0	0	0	0	0
2.21667	-218.233	1466.6	51.6021	1.01105	0	-0.623354	0.700086	-4.70481	-0.165539	0	0	0	0	0	0	0	0	0
2.225	-170.77	1630.43	42.4353	0.97164	0	-0.623856	0.483	-4.61144	-0.120022	0	0	0	0	0	0	0	0	0
2.23333	-117.022	1772.87	32.3957	0.937483	0	-0.623296	0.227635	-3.44864	-0.0630172	0	0	0	0	0	0	0	0	0
2.24167	-70.6603	1862.33	23.0314	0.906805	0	-0.622006	0.0634804	-1.6731	-0.0206911	0	0	0	0	0	0	0	0	0
2.25	-26.9648	1901.34	14.5272	0.87543	0	-0.620872	-0.00248312	0.17509	0.00133777	0	0	0	0	0	0	0	0	0
